<svg width="114" height="24" viewBox="0 0 114 24" fill="none" xmlns="http://www.w3.org/2000/svg">
<path d="M0 0.432433C0 0.193607 0.194369 0 0.434135 0H3.69015C3.92992 0 4.12428 0.193607 4.12428 0.432432V3.67568C4.12428 3.9145 3.92992 4.10811 3.69015 4.10811H0.434135C0.194369 4.10811 0 3.9145 0 3.67568V0.432433Z" fill="#F2F5F9"/>
<path d="M19.9702 0.432433C19.9702 0.193607 20.1646 0 20.4044 0H23.6604C23.9001 0 24.0945 0.193607 24.0945 0.432432V3.67568C24.0945 3.9145 23.9001 4.10811 23.6604 4.10811H20.4044C20.1646 4.10811 19.9702 3.9145 19.9702 3.67568V0.432433Z" fill="#F2F5F9"/>
<path d="M4.99256 5.40541C4.99256 5.16658 5.18692 4.97297 5.42669 4.97297H8.6827C8.92247 4.97297 9.11684 5.16658 9.11684 5.40541V8.64865C9.11684 8.88747 8.92247 9.08108 8.6827 9.08108H5.42669C5.18692 9.08108 4.99256 8.88747 4.99256 8.64865V5.40541Z" fill="#F2F5F9"/>
<path d="M14.9777 5.40541C14.9777 5.16658 15.172 4.97297 15.4118 4.97297H18.6678C18.9076 4.97297 19.102 5.16658 19.102 5.40541V8.64865C19.102 8.88747 18.9076 9.08108 18.6678 9.08108H15.4118C15.172 9.08108 14.9777 8.88747 14.9777 8.64865V5.40541Z" fill="#F2F5F9"/>
<path d="M4.99256 10.3784C4.99256 10.1396 5.18692 9.94595 5.42669 9.94595H8.6827C8.92247 9.94595 9.11684 10.1396 9.11684 10.3784V13.6216C9.11684 13.8604 8.92247 14.0541 8.6827 14.0541H5.42669C5.18692 14.0541 4.99256 13.8604 4.99256 13.6216V10.3784Z" fill="#F2F5F9"/>
<path d="M9.98511 10.3784C9.98511 10.1396 10.1795 9.94595 10.4192 9.94595H13.6753C13.915 9.94595 14.1094 10.1396 14.1094 10.3784V13.6216C14.1094 13.8604 13.915 14.0541 13.6753 14.0541H10.4192C10.1795 14.0541 9.98511 13.8604 9.98511 13.6216V10.3784Z" fill="#F2F5F9"/>
<path d="M0 15.3514C0 15.1125 0.194369 14.9189 0.434135 14.9189H3.69015C3.92992 14.9189 4.12428 15.1125 4.12428 15.3514V18.5946C4.12428 18.8334 3.92992 19.027 3.69015 19.027H0.434135C0.194369 19.027 0 18.8334 0 18.5946V15.3514Z" fill="#F2F5F9"/>
<path d="M9.98511 15.3514C9.98511 15.1125 10.1795 14.9189 10.4192 14.9189H13.6753C13.915 14.9189 14.1094 15.1125 14.1094 15.3514V18.5946C14.1094 18.8334 13.915 19.027 13.6753 19.027H10.4192C10.1795 19.027 9.98511 18.8334 9.98511 18.5946V15.3514Z" fill="#F2F5F9"/>
<path d="M14.9777 15.3514C14.9777 15.1125 15.172 14.9189 15.4118 14.9189H18.6678C18.9076 14.9189 19.102 15.1125 19.102 15.3514V18.5946C19.102 18.8334 18.9076 19.027 18.6678 19.027H15.4118C15.172 19.027 14.9777 18.8334 14.9777 18.5946V15.3514Z" fill="#F2F5F9"/>
<path d="M4.99256 20.3243C4.99256 20.0855 5.18692 19.8919 5.42669 19.8919H8.6827C8.92247 19.8919 9.11684 20.0855 9.11684 20.3243V23.5676C9.11684 23.8064 8.92247 24 8.6827 24H5.42669C5.18692 24 4.99256 23.8064 4.99256 23.5676V20.3243Z" fill="#F2F5F9"/>
<path d="M14.9777 20.3243C14.9777 20.0855 15.172 19.8919 15.4118 19.8919H18.6678C18.9076 19.8919 19.102 20.0855 19.102 20.3243V23.5676C19.102 23.8064 18.9076 24 18.6678 24H15.4118C15.172 24 14.9777 23.8064 14.9777 23.5676V20.3243Z" fill="#F2F5F9"/>
<path d="M19.9702 20.3243C19.9702 20.0855 20.1646 19.8919 20.4044 19.8919H23.6604C23.9001 19.8919 24.0945 20.0855 24.0945 20.3243V23.5676C24.0945 23.8064 23.9001 24 23.6604 24H20.4044C20.1646 24 19.9702 23.8064 19.9702 23.5676V20.3243Z" fill="#F2F5F9"/>
<path d="M41.444 19.392C40.4802 19.392 39.5807 19.2128 38.7454 18.8544C37.9101 18.496 37.1776 18.0032 36.548 17.376C35.9183 16.736 35.4236 16 35.0638 15.168C34.7168 14.3232 34.5433 13.4208 34.5433 12.4608C34.5433 11.5008 34.7168 10.6048 35.0638 9.7728C35.4236 8.9408 35.9119 8.2112 36.5287 7.584C37.1584 6.944 37.8844 6.4512 38.7068 6.1056C39.5421 5.7472 40.4417 5.568 41.4054 5.568C42.3692 5.568 43.2623 5.7472 44.0847 6.1056C44.92 6.4512 45.6525 6.944 46.2822 7.584C46.9118 8.2112 47.4001 8.9472 47.7471 9.792C48.1069 10.624 48.2868 11.52 48.2868 12.48C48.2868 13.44 48.1069 14.3424 47.7471 15.1872C47.4001 16.0192 46.9118 16.7488 46.2822 17.376C45.6653 18.0032 44.9393 18.496 44.104 18.8544C43.2816 19.2128 42.3949 19.392 41.444 19.392ZM47.6122 20.1216L41.5404 14.0736L42.9668 12.6528L49.0386 18.7008L47.6122 20.1216ZM41.4054 17.28C42.3178 17.28 43.1145 17.0752 43.7956 16.6656C44.4895 16.256 45.0292 15.6928 45.4148 14.976C45.8131 14.2464 46.0123 13.408 46.0123 12.4608C46.0123 11.7568 45.8966 11.1168 45.6653 10.5408C45.4469 9.952 45.132 9.4464 44.7208 9.024C44.3096 8.5888 43.8213 8.256 43.2559 8.0256C42.7033 7.7952 42.0865 7.68 41.4054 7.68C40.5059 7.68 39.7092 7.8848 39.0153 8.2944C38.3342 8.6912 37.7945 9.248 37.3961 9.9648C37.0106 10.6816 36.8178 11.5136 36.8178 12.4608C36.8178 13.1648 36.9271 13.8176 37.1455 14.4192C37.3768 15.008 37.6917 15.5136 38.09 15.936C38.5012 16.3584 38.9896 16.6912 39.555 16.9344C40.1204 17.1648 40.7372 17.28 41.4054 17.28Z" fill="#F2F5F9"/>
<path d="M52.36 13.4976V11.6736H55.7718C56.4529 11.6736 56.9797 11.5008 57.3524 11.1552C57.7379 10.7968 57.9306 10.304 57.9306 9.6768C57.9306 9.1136 57.7443 8.64 57.3717 8.256C56.999 7.872 56.4721 7.68 55.7911 7.68H52.36V5.76H55.8874C56.7356 5.76 57.4809 5.9328 58.1234 6.2784C58.7659 6.6112 59.2607 7.072 59.6076 7.6608C59.9674 8.2368 60.1473 8.896 60.1473 9.6384C60.1473 10.4192 59.9674 11.0976 59.6076 11.6736C59.2607 12.2496 58.7659 12.6976 58.1234 13.0176C57.4809 13.3376 56.7356 13.4976 55.8874 13.4976H52.36ZM50.8372 19.2V5.76H53.0539V19.2H50.8372ZM58.2391 19.2L53.5165 13.3632L55.579 12.6144L61.034 19.2H58.2391Z" fill="#F2F5F9"/>
<path d="M68.4449 19.392C67.4683 19.392 66.5623 19.2192 65.727 18.8736C64.9046 18.5152 64.185 18.0224 63.5682 17.3952C62.9513 16.7552 62.4759 16.0192 62.1418 15.1872C61.8077 14.3424 61.6406 13.44 61.6406 12.48C61.6406 11.52 61.8077 10.624 62.1418 9.792C62.4759 8.9472 62.9513 8.2112 63.5682 7.584C64.185 6.9568 64.9046 6.464 65.727 6.1056C66.5623 5.7472 67.4683 5.568 68.4449 5.568C69.5372 5.568 70.4817 5.7472 71.2784 6.1056C72.0751 6.464 72.7819 6.9504 73.3987 7.5648L71.8952 9.0624C71.4969 8.6272 71.0085 8.288 70.4303 8.0448C69.8649 7.8016 69.2031 7.68 68.4449 7.68C67.7767 7.68 67.1663 7.7952 66.6137 8.0256C66.0611 8.256 65.5792 8.5888 65.168 9.024C64.7697 9.4464 64.4613 9.952 64.2428 10.5408C64.0244 11.1296 63.9151 11.776 63.9151 12.48C63.9151 13.184 64.0244 13.8304 64.2428 14.4192C64.4613 15.008 64.7697 15.52 65.168 15.9552C65.5792 16.3776 66.0611 16.704 66.6137 16.9344C67.1663 17.1648 67.7767 17.28 68.4449 17.28C69.2673 17.28 69.9612 17.1584 70.5267 16.9152C71.1049 16.6592 71.5932 16.3136 71.9916 15.8784L73.4951 17.376C72.8783 18.0032 72.1522 18.496 71.317 18.8544C70.4817 19.2128 69.5243 19.392 68.4449 19.392Z" fill="#F2F5F9"/>
<path d="M80.9412 19.392C79.9774 19.392 79.0779 19.2128 78.2426 18.8544C77.4073 18.496 76.6749 18.0032 76.0452 17.376C75.4155 16.736 74.9208 16 74.561 15.168C74.214 14.3232 74.0405 13.4208 74.0405 12.4608C74.0405 11.5008 74.214 10.6048 74.561 9.7728C74.9208 8.9408 75.4091 8.2112 76.0259 7.584C76.6556 6.944 77.3816 6.4512 78.2041 6.1056C79.0393 5.7472 79.9389 5.568 80.9027 5.568C81.8664 5.568 82.7595 5.7472 83.582 6.1056C84.4172 6.4512 85.1497 6.944 85.7794 7.584C86.409 8.2112 86.8974 8.9472 87.2443 9.792C87.6041 10.624 87.784 11.52 87.784 12.48C87.784 13.44 87.6041 14.3424 87.2443 15.1872C86.8974 16.0192 86.409 16.7488 85.7794 17.376C85.1626 18.0032 84.4365 18.496 83.6012 18.8544C82.7788 19.2128 81.8921 19.392 80.9412 19.392ZM80.9027 17.28C81.815 17.28 82.6118 17.0752 83.2928 16.6656C83.9868 16.256 84.5265 15.6928 84.912 14.976C85.3103 14.2464 85.5095 13.408 85.5095 12.4608C85.5095 11.7568 85.3939 11.1168 85.1626 10.5408C84.9441 9.952 84.6293 9.4464 84.2181 9.024C83.8068 8.5888 83.3185 8.256 82.7531 8.0256C82.2005 7.7952 81.5837 7.68 80.9027 7.68C80.0031 7.68 79.2064 7.8848 78.5125 8.2944C77.8314 8.6912 77.2917 9.248 76.8933 9.9648C76.5078 10.6816 76.3151 11.5136 76.3151 12.4608C76.3151 13.1648 76.4243 13.8176 76.6427 14.4192C76.874 15.008 77.1889 15.5136 77.5873 15.936C77.9985 16.3584 78.4868 16.6912 79.0522 16.9344C79.6176 17.1648 80.2344 17.28 80.9027 17.28Z" fill="#F2F5F9"/>
<path d="M91.3683 19.2V17.184H94.915C95.8402 17.184 96.6498 16.9856 97.3437 16.5888C98.0505 16.192 98.5966 15.6416 98.9821 14.9376C99.3805 14.2208 99.5797 13.3952 99.5797 12.4608C99.5797 11.5392 99.3805 10.7264 98.9821 10.0224C98.5838 9.3184 98.0312 8.768 97.3244 8.3712C96.6305 7.9744 95.8273 7.776 94.915 7.776H91.3683V5.76H94.9728C95.9494 5.76 96.8554 5.9328 97.6906 6.2784C98.5259 6.6112 99.252 7.0848 99.8688 7.6992C100.498 8.3008 100.987 9.0112 101.334 9.8304C101.681 10.6368 101.854 11.52 101.854 12.48C101.854 13.4272 101.681 14.3104 101.334 15.1296C100.987 15.9488 100.505 16.6656 99.8881 17.28C99.2712 17.8816 98.5452 18.3552 97.7099 18.7008C96.8747 19.0336 95.9751 19.2 95.0113 19.2H91.3683ZM89.8455 19.2V5.76H92.0622V19.2H89.8455Z" fill="#F2F5F9"/>
<path d="M103.921 19.2V5.76H106.138V19.2H103.921ZM105.444 19.2V17.184H113V19.2H105.444ZM105.444 13.3056V11.3664H112.345V13.3056H105.444ZM105.444 7.776V5.76H112.904V7.776H105.444Z" fill="#F2F5F9"/>
</svg>
