<svg width="189" height="40" viewBox="0 0 189 40" fill="none" xmlns="http://www.w3.org/2000/svg">
<path d="M0 0.720721C0 0.322678 0.322678 0 0.720721 0H6.12613C6.52417 0 6.84685 0.322678 6.84685 0.720721V6.12613C6.84685 6.52417 6.52417 6.84685 6.12613 6.84685H0.720721C0.322678 6.84685 0 6.52417 0 6.12613V0.720721Z" fill="#F2F5F9"/>
<path d="M33.1532 0.720721C33.1532 0.322678 33.4758 0 33.8739 0H39.2793C39.6773 0 40 0.322678 40 0.720721V6.12613C40 6.52417 39.6773 6.84685 39.2793 6.84685H33.8739C33.4758 6.84685 33.1532 6.52417 33.1532 6.12613V0.720721Z" fill="#F2F5F9"/>
<path d="M8.28829 9.00901C8.28829 8.61097 8.61097 8.28829 9.00901 8.28829H14.4144C14.8125 8.28829 15.1351 8.61097 15.1351 9.00901V14.4144C15.1351 14.8125 14.8125 15.1351 14.4144 15.1351H9.00901C8.61097 15.1351 8.28829 14.8125 8.28829 14.4144V9.00901Z" fill="#F2F5F9"/>
<path d="M24.8649 9.00901C24.8649 8.61097 25.1875 8.28829 25.5856 8.28829H30.991C31.389 8.28829 31.7117 8.61097 31.7117 9.00901V14.4144C31.7117 14.8125 31.389 15.1351 30.991 15.1351H25.5856C25.1875 15.1351 24.8649 14.8125 24.8649 14.4144V9.00901Z" fill="#F2F5F9"/>
<path d="M8.28829 17.2973C8.28829 16.8993 8.61097 16.5766 9.00901 16.5766H14.4144C14.8125 16.5766 15.1351 16.8993 15.1351 17.2973V22.7027C15.1351 23.1007 14.8125 23.4234 14.4144 23.4234H9.00901C8.61097 23.4234 8.28829 23.1007 8.28829 22.7027V17.2973Z" fill="#F2F5F9"/>
<path d="M16.5766 17.2973C16.5766 16.8993 16.8993 16.5766 17.2973 16.5766H22.7027C23.1007 16.5766 23.4234 16.8993 23.4234 17.2973V22.7027C23.4234 23.1007 23.1007 23.4234 22.7027 23.4234H17.2973C16.8993 23.4234 16.5766 23.1007 16.5766 22.7027V17.2973Z" fill="#F2F5F9"/>
<path d="M0 25.5856C0 25.1875 0.322678 24.8649 0.720721 24.8649H6.12613C6.52417 24.8649 6.84685 25.1875 6.84685 25.5856V30.991C6.84685 31.389 6.52417 31.7117 6.12613 31.7117H0.720721C0.322678 31.7117 0 31.389 0 30.991V25.5856Z" fill="#F2F5F9"/>
<path d="M16.5766 25.5856C16.5766 25.1875 16.8993 24.8649 17.2973 24.8649H22.7027C23.1007 24.8649 23.4234 25.1875 23.4234 25.5856V30.991C23.4234 31.389 23.1007 31.7117 22.7027 31.7117H17.2973C16.8993 31.7117 16.5766 31.389 16.5766 30.991V25.5856Z" fill="#F2F5F9"/>
<path d="M24.8649 25.5856C24.8649 25.1875 25.1875 24.8649 25.5856 24.8649H30.991C31.389 24.8649 31.7117 25.1875 31.7117 25.5856V30.991C31.7117 31.389 31.389 31.7117 30.991 31.7117H25.5856C25.1875 31.7117 24.8649 31.389 24.8649 30.991V25.5856Z" fill="#F2F5F9"/>
<path d="M8.28829 33.8739C8.28829 33.4758 8.61097 33.1532 9.00901 33.1532H14.4144C14.8125 33.1532 15.1351 33.4758 15.1351 33.8739V39.2793C15.1351 39.6773 14.8125 40 14.4144 40H9.00901C8.61097 40 8.28829 39.6773 8.28829 39.2793V33.8739Z" fill="#F2F5F9"/>
<path d="M24.8649 33.8739C24.8649 33.4758 25.1875 33.1532 25.5856 33.1532H30.991C31.389 33.1532 31.7117 33.4758 31.7117 33.8739V39.2793C31.7117 39.6773 31.389 40 30.991 40H25.5856C25.1875 40 24.8649 39.6773 24.8649 39.2793V33.8739Z" fill="#F2F5F9"/>
<path d="M33.1532 33.8739C33.1532 33.4758 33.4758 33.1532 33.8739 33.1532H39.2793C39.6773 33.1532 40 33.4758 40 33.8739V39.2793C40 39.6773 39.6773 40 39.2793 40H33.8739C33.4758 40 33.1532 39.6773 33.1532 39.2793V33.8739Z" fill="#F2F5F9"/>
<path d="M68.8024 32.32C67.2024 32.32 65.709 32.0213 64.3224 31.424C62.9357 30.8267 61.7197 30.0053 60.6744 28.96C59.629 27.8933 58.8077 26.6667 58.2104 25.28C57.6344 23.872 57.3464 22.368 57.3464 20.768C57.3464 19.168 57.6344 17.6747 58.2104 16.288C58.8077 14.9013 59.6184 13.6853 60.6424 12.64C61.6877 11.5733 62.893 10.752 64.2584 10.176C65.645 9.57867 67.1384 9.28 68.7384 9.28C70.3384 9.28 71.821 9.57867 73.1864 10.176C74.573 10.752 75.789 11.5733 76.8344 12.64C77.8797 13.6853 78.6904 14.912 79.2664 16.32C79.8637 17.7067 80.1624 19.2 80.1624 20.8C80.1624 22.4 79.8637 23.904 79.2664 25.312C78.6904 26.6987 77.8797 27.9147 76.8344 28.96C75.8104 30.0053 74.605 30.8267 73.2184 31.424C71.853 32.0213 70.381 32.32 68.8024 32.32ZM79.0424 33.536L68.9624 23.456L71.3304 21.088L81.4104 31.168L79.0424 33.536ZM68.7384 28.8C70.253 28.8 71.5757 28.4587 72.7064 27.776C73.8584 27.0933 74.7544 26.1547 75.3944 24.96C76.0557 23.744 76.3864 22.3467 76.3864 20.768C76.3864 19.5947 76.1944 18.528 75.8104 17.568C75.4477 16.5867 74.925 15.744 74.2424 15.04C73.5597 14.3147 72.749 13.76 71.8104 13.376C70.893 12.992 69.869 12.8 68.7384 12.8C67.245 12.8 65.9224 13.1413 64.7704 13.824C63.6397 14.4853 62.7437 15.4133 62.0824 16.608C61.4424 17.8027 61.1224 19.1893 61.1224 20.768C61.1224 21.9413 61.3037 23.0293 61.6664 24.032C62.0504 25.0133 62.573 25.856 63.2344 26.56C63.917 27.264 64.7277 27.8187 65.6664 28.224C66.605 28.608 67.629 28.8 68.7384 28.8Z" fill="#F2F5F9"/>
<path d="M86.9244 22.496V19.456H92.5884C93.719 19.456 94.5937 19.168 95.2124 18.592C95.8524 17.9947 96.1724 17.1733 96.1724 16.128C96.1724 15.1893 95.863 14.4 95.2444 13.76C94.6257 13.12 93.751 12.8 92.6204 12.8H86.9244V9.6H92.7804C94.1884 9.6 95.4257 9.888 96.4924 10.464C97.559 11.0187 98.3804 11.7867 98.9564 12.768C99.5537 13.728 99.8524 14.8267 99.8524 16.064C99.8524 17.3653 99.5537 18.496 98.9564 19.456C98.3804 20.416 97.559 21.1627 96.4924 21.696C95.4257 22.2293 94.1884 22.496 92.7804 22.496H86.9244ZM84.3964 32V9.6H88.0764V32H84.3964ZM96.6844 32L88.8444 22.272L92.2684 21.024L101.324 32H96.6844Z" fill="#F2F5F9"/>
<path d="M113.627 32.32C112.006 32.32 110.502 32.032 109.115 31.456C107.75 30.8587 106.555 30.0373 105.531 28.992C104.507 27.9253 103.718 26.6987 103.163 25.312C102.609 23.904 102.331 22.4 102.331 20.8C102.331 19.2 102.609 17.7067 103.163 16.32C103.718 14.912 104.507 13.6853 105.531 12.64C106.555 11.5947 107.75 10.7733 109.115 10.176C110.502 9.57867 112.006 9.28 113.627 9.28C115.441 9.28 117.009 9.57867 118.331 10.176C119.654 10.7733 120.827 11.584 121.851 12.608L119.355 15.104C118.694 14.3787 117.883 13.8133 116.923 13.408C115.985 13.0027 114.886 12.8 113.627 12.8C112.518 12.8 111.505 12.992 110.587 13.376C109.67 13.76 108.87 14.3147 108.187 15.04C107.526 15.744 107.014 16.5867 106.651 17.568C106.289 18.5493 106.107 19.6267 106.107 20.8C106.107 21.9733 106.289 23.0507 106.651 24.032C107.014 25.0133 107.526 25.8667 108.187 26.592C108.87 27.296 109.67 27.84 110.587 28.224C111.505 28.608 112.518 28.8 113.627 28.8C114.993 28.8 116.145 28.5973 117.083 28.192C118.043 27.7653 118.854 27.1893 119.515 26.464L122.011 28.96C120.987 30.0053 119.782 30.8267 118.395 31.424C117.009 32.0213 115.419 32.32 113.627 32.32Z" fill="#F2F5F9"/>
<path d="M134.373 32.32C132.773 32.32 131.28 32.0213 129.893 31.424C128.506 30.8267 127.29 30.0053 126.245 28.96C125.2 27.8933 124.378 26.6667 123.781 25.28C123.205 23.872 122.917 22.368 122.917 20.768C122.917 19.168 123.205 17.6747 123.781 16.288C124.378 14.9013 125.189 13.6853 126.213 12.64C127.258 11.5733 128.464 10.752 129.829 10.176C131.216 9.57867 132.709 9.28 134.309 9.28C135.909 9.28 137.392 9.57867 138.757 10.176C140.144 10.752 141.36 11.5733 142.405 12.64C143.45 13.6853 144.261 14.912 144.837 16.32C145.434 17.7067 145.733 19.2 145.733 20.8C145.733 22.4 145.434 23.904 144.837 25.312C144.261 26.6987 143.45 27.9147 142.405 28.96C141.381 30.0053 140.176 30.8267 138.789 31.424C137.424 32.0213 135.952 32.32 134.373 32.32ZM134.309 28.8C135.824 28.8 137.146 28.4587 138.277 27.776C139.429 27.0933 140.325 26.1547 140.965 24.96C141.626 23.744 141.957 22.3467 141.957 20.768C141.957 19.5947 141.765 18.528 141.381 17.568C141.018 16.5867 140.496 15.744 139.813 15.04C139.13 14.3147 138.32 13.76 137.381 13.376C136.464 12.992 135.44 12.8 134.309 12.8C132.816 12.8 131.493 13.1413 130.341 13.824C129.21 14.4853 128.314 15.4133 127.653 16.608C127.013 17.8027 126.693 19.1893 126.693 20.768C126.693 21.9413 126.874 23.0293 127.237 24.032C127.621 25.0133 128.144 25.856 128.805 26.56C129.488 27.264 130.298 27.8187 131.237 28.224C132.176 28.608 133.2 28.8 134.309 28.8Z" fill="#F2F5F9"/>
<path d="M151.683 32V28.64H157.571C159.107 28.64 160.451 28.3093 161.603 27.648C162.776 26.9867 163.683 26.0693 164.323 24.896C164.984 23.7013 165.315 22.3253 165.315 20.768C165.315 19.232 164.984 17.8773 164.323 16.704C163.662 15.5307 162.744 14.6133 161.571 13.952C160.419 13.2907 159.086 12.96 157.571 12.96H151.683V9.6H157.667C159.288 9.6 160.792 9.888 162.179 10.464C163.566 11.0187 164.771 11.808 165.795 12.832C166.84 13.8347 167.651 15.0187 168.227 16.384C168.803 17.728 169.091 19.2 169.091 20.8C169.091 22.3787 168.803 23.8507 168.227 25.216C167.651 26.5813 166.851 27.776 165.827 28.8C164.803 29.8027 163.598 30.592 162.211 31.168C160.824 31.7227 159.331 32 157.731 32H151.683ZM149.155 32V9.6H152.835V32H149.155Z" fill="#F2F5F9"/>
<path d="M172.523 32V9.6H176.203V32H172.523ZM175.051 32V28.64H187.595V32H175.051ZM175.051 22.176V18.944H186.507V22.176H175.051ZM175.051 12.96V9.6H187.435V12.96H175.051Z" fill="#F2F5F9"/>
</svg>
